<svg width="32" height="32" viewBox="0 0 32 32" fill="none" xmlns="http://www.w3.org/2000/svg">
<path fill-rule="evenodd" clip-rule="evenodd" d="M16.5 4C10.152 4 5 9.152 5 15.5C5 21.848 10.152 27 16.5 27C22.8365 27 28 21.848 28 15.5C28 9.152 22.8365 4 16.5 4ZM24.0958 9.3015C25.5115 11.0255 26.2951 13.1817 26.3167 15.4123C25.9918 15.3505 22.7488 14.6893 19.4814 15.1004C19.4066 14.9394 19.3434 14.764 19.2686 14.5901C19.0688 14.1157 18.8446 13.6298 18.6203 13.1669C22.2371 11.6964 23.8844 9.57606 24.0972 9.30006L24.0958 9.3015ZM16.5 5.69625C18.9941 5.69625 21.2768 6.63063 23.0119 8.16588C22.8365 8.416 21.3516 10.3983 17.8599 11.7079C16.2499 8.75237 14.4674 6.33162 14.1928 5.95787C14.9491 5.78129 15.7234 5.69349 16.5 5.69625V5.69625ZM12.3212 6.61913C13.6375 8.44338 14.8535 10.3379 15.9638 12.2944C11.3739 13.5163 7.32012 13.4918 6.88312 13.4918C7.19917 12.005 7.85438 10.6114 8.79766 9.41949C9.74094 8.22761 10.9468 7.26973 12.3212 6.62056V6.61913ZM6.67181 15.5144V15.2125C7.09587 15.2269 11.8612 15.2887 16.7631 13.8167C17.0491 14.3644 17.3107 14.9264 17.5609 15.4871L17.1728 15.5992C12.1099 17.2336 9.416 21.6985 9.19031 22.0737C7.56856 20.2734 6.67131 17.936 6.67181 15.5129V15.5144ZM16.5 25.3282C14.3172 25.3316 12.1964 24.6027 10.4769 23.2582C10.6494 22.8959 12.6461 19.0549 18.1833 17.1215C18.2092 17.1086 18.2207 17.1086 18.2466 17.0971C19.1801 19.5068 19.8814 22.0002 20.341 24.5433C19.1277 25.0646 17.8205 25.3318 16.5 25.3282V25.3282ZM21.9769 23.6449C21.8763 23.0454 21.3516 20.1776 20.0679 16.6471C23.1484 16.1613 25.8423 16.9591 26.1787 17.0712C25.9692 18.3975 25.4876 19.6662 24.7643 20.7974C24.0409 21.9287 23.0914 22.8982 21.9754 23.6449H21.9769Z" fill="#ABB2BF"/>
</svg>
